<svg width="18" height="18" viewBox="0 0 18 18" fill="none" xmlns="http://www.w3.org/2000/svg">
<path d="M17.472 12.0462L17.4979 11.9596C18.1674 10.0433 18.1674 7.95668 17.4979 6.04039L17.472 5.95385C16.8404 4.21268 15.6889 2.70769 14.1736 1.64274C12.6582 0.577778 10.8521 0.00430854 9 0C7.14727 0.00182195 5.34007 0.574315 3.82423 1.63961C2.30838 2.7049 1.15746 4.21128 0.528034 5.95385L0.502073 6.04039C-0.167358 7.95668 -0.167358 10.0433 0.502073 11.9596L0.528034 12.0462C1.15746 13.7887 2.30838 15.2951 3.82423 16.3604C5.34007 17.4257 7.14727 17.9982 9 18C10.8527 17.9982 12.6599 17.4257 14.1758 16.3604C15.6916 15.2951 16.8425 13.7887 17.472 12.0462ZM6.79331 12.4615H11.2067C10.7632 13.8381 10.0081 15.0938 9 16.1308C7.99192 15.0938 7.23675 13.8381 6.79331 12.4615ZM6.42985 11.0769C6.16454 9.70502 6.16454 8.29498 6.42985 6.92308H11.5701C11.7019 7.60755 11.7685 8.30296 11.7692 9C11.769 9.69706 11.7023 10.3925 11.5701 11.0769H6.42985ZM1.38475 9C1.38622 8.29801 1.48228 7.59942 1.67032 6.92308H5.0193C4.78854 8.29808 4.78854 9.70192 5.0193 11.0769H1.67032C1.48228 10.4006 1.38622 9.70199 1.38475 9ZM11.2067 5.53846H6.79331C7.23675 4.16188 7.99192 2.90622 9 1.86923C10.0081 2.90622 10.7632 4.16188 11.2067 5.53846ZM12.9807 6.92308H16.3297C16.7105 8.2815 16.7105 9.7185 16.3297 11.0769H12.9807C13.2115 9.70192 13.2115 8.29808 12.9807 6.92308ZM15.7845 5.53846H12.6692C12.2528 4.08056 11.5431 2.72302 10.5836 1.54904C11.6915 1.78825 12.7326 2.27012 13.6319 2.95995C14.5312 3.64978 15.2664 4.53041 15.7845 5.53846ZM7.41637 1.54904C6.4569 2.72302 5.74722 4.08056 5.33083 5.53846H2.2155C2.73365 4.53041 3.46883 3.64978 4.36814 2.95995C5.26745 2.27012 6.3085 1.78825 7.41637 1.54904ZM2.2155 12.4615H5.33083C5.74722 13.9194 6.4569 15.277 7.41637 16.451C6.30782 16.2135 5.26601 15.7323 4.36646 15.0422C3.46691 14.3522 2.73217 13.4707 2.2155 12.4615ZM10.5836 16.451C11.5431 15.277 12.2528 13.9194 12.6692 12.4615H15.7845C15.2678 13.4707 14.5331 14.3522 13.6335 15.0422C12.734 15.7323 11.6922 16.2135 10.5836 16.451Z" fill="#C73232"/>
</svg>
