<svg width="11" height="18" viewBox="0 0 11 18" fill="none" xmlns="http://www.w3.org/2000/svg">
<path d="M5.18479 9.30702C2.64226 9.30702 0.529031 7.19559 0.529031 4.69716C0.529031 2.11233 2.64226 0 5.18569 0C7.81552 0 9.84145 2.11143 9.84145 4.69716C9.83692 5.92392 9.34549 7.09869 8.47517 7.96327C7.60485 8.82786 6.42685 9.3115 5.20009 9.30792L5.18479 9.30702V9.30702ZM5.18479 2.71533C4.10838 2.71533 3.28937 3.61985 3.28937 4.69806C3.28937 5.77447 4.10838 6.59348 5.18569 6.59348C6.3062 6.59348 7.08201 5.77447 7.08201 4.69806C7.08291 3.61895 6.3062 2.71533 5.18479 2.71533ZM7.03881 13.1429L9.66955 15.6854C10.1871 16.2443 10.1871 17.0633 9.66955 17.5808C9.10974 18.1397 8.24663 18.1397 7.81552 17.5808L5.18569 14.9951L2.64226 17.5808C2.38395 17.8391 2.03835 17.9678 1.64954 17.9678C1.34804 17.9678 1.00334 17.8382 0.700933 17.5808C0.183427 17.0633 0.183427 16.2443 0.700933 15.6845L3.37397 13.142C2.40864 12.8561 1.48262 12.4513 0.617232 11.9368C-0.0298761 11.5921 -0.158577 10.7308 0.186127 10.0837C0.617232 9.43752 1.39304 9.26562 2.08335 9.69672C3.0181 10.2672 4.09198 10.569 5.18704 10.569C6.2821 10.569 7.35598 10.2672 8.29073 9.69672C8.98104 9.26562 9.79915 9.43752 10.1871 10.0837C10.5759 10.7308 10.4022 11.5912 9.79825 11.9368C8.98014 12.4544 8.03152 12.8423 7.03971 13.1438L7.03881 13.1429V13.1429Z" fill="#ed812b"/>
</svg>