<svg width="16" height="18" viewBox="0 0 16 18" fill="none" xmlns="http://www.w3.org/2000/svg">
<path d="M8.31971 0.0151883C9.30132 0 10.2773 0.00900048 11.2522 0C11.3112 1.14812 11.7241 2.31762 12.5646 3.12935C13.4033 3.96134 14.5897 4.34217 15.744 4.47099V7.49121C14.6622 7.45577 13.5754 7.23076 12.5938 6.76499C12.1663 6.57148 11.768 6.32227 11.3782 6.06745C11.3731 8.25907 11.3872 10.4479 11.3641 12.6305C11.3056 13.679 10.9597 14.7225 10.3499 15.5866C9.36883 17.025 7.66605 17.9627 5.91714 17.992C4.8444 18.0533 3.77278 17.7608 2.85867 17.2219C1.34377 16.3286 0.277779 14.6933 0.122521 12.9382C0.102964 12.5665 0.099961 12.1941 0.11352 11.8221C0.248527 10.395 0.954503 9.02973 2.05031 8.10099C3.29238 7.01925 5.03228 6.50397 6.66137 6.80886C6.67656 7.91986 6.63212 9.02973 6.63212 10.1407C5.88789 9.89997 5.01822 9.96747 4.36793 10.4192C3.89217 10.7326 3.53263 11.1937 3.34469 11.7316C3.18943 12.1118 3.23387 12.5343 3.24287 12.9382C3.4212 14.169 4.60476 15.2035 5.8682 15.0916C6.70581 15.0826 7.50854 14.5965 7.94506 13.8849C8.08626 13.6357 8.24433 13.3809 8.25277 13.0878C8.32646 11.7462 8.29721 10.4102 8.30621 9.06855C8.31239 6.04495 8.29721 3.02979 8.32027 0.0157508L8.31971 0.0151883Z" fill="#FE2C55"/>
</svg>