<svg width="18" height="18" viewBox="0 0 18 18" fill="none" xmlns="http://www.w3.org/2000/svg">
<path d="M8.995 18C6.53637 18 6.24653 17.987 5.28706 17.9451C4.53885 17.9206 3.80032 17.7687 3.10328 17.496C2.50679 17.2642 1.96509 16.9111 1.51258 16.4591C1.06007 16.007 0.706641 15.466 0.474736 14.8703C0.212188 14.1717 0.0705786 13.4336 0.0559689 12.6876C-7.44644e-09 11.7315 0 11.4182 0 8.98204C0 6.51996 0.0129928 6.23254 0.0559689 5.27944C0.0708983 4.53445 0.212503 3.79741 0.474736 3.0998C0.706375 2.50333 1.06004 1.96165 1.51315 1.50937C1.96626 1.05708 2.50886 0.704132 3.10627 0.473054C3.80453 0.209783 4.54282 0.0680082 5.28906 0.0538921C6.24353 -1.00382e-07 6.55736 0 8.995 0C11.4736 0 11.7585 0.012974 12.7029 0.0538921C13.4505 0.0678642 14.1921 0.209581 14.8917 0.473054C15.489 0.7044 16.0314 1.05745 16.4845 1.5097C16.9376 1.96195 17.2914 2.50349 17.5233 3.0998C17.7901 3.80838 17.933 4.55689 17.944 5.31238C18 6.26846 18 6.58084 18 9.01597C18 11.4511 17.986 11.7705 17.944 12.7156C17.9291 13.4623 17.7872 14.201 17.5243 14.9002C17.2918 15.4963 16.9377 16.0377 16.4845 16.4899C16.0313 16.9421 15.4889 17.2952 14.8917 17.5269C14.1921 17.7884 13.4535 17.9301 12.7069 17.9451C11.7525 18 11.4396 18 8.995 18V18ZM8.96102 1.57984C6.51638 1.57984 6.26252 1.59182 5.30805 1.63473C4.73802 1.64217 4.17348 1.74715 3.63898 1.94511C3.24913 2.09433 2.89491 2.32346 2.59917 2.61775C2.30343 2.91203 2.07273 3.26493 1.92193 3.65369C1.72204 4.19261 1.6171 4.76247 1.6111 5.33733C1.55813 6.30439 1.55813 6.55788 1.55813 8.98204C1.55813 11.3772 1.56713 11.6677 1.6111 12.6287C1.6201 13.1976 1.72504 13.7615 1.92193 14.2954C2.22776 15.0808 2.85142 15.7016 3.63998 16.003C4.17379 16.2022 4.73822 16.3072 5.30805 16.3134C6.27551 16.3693 6.53037 16.3693 8.96102 16.3693C11.4127 16.3693 11.6665 16.3573 12.613 16.3134C13.1831 16.3065 13.7477 16.2015 14.2821 16.003C14.6698 15.8526 15.022 15.6234 15.3163 15.3297C15.6105 15.0361 15.8403 14.6845 15.9911 14.2974C16.191 13.7585 16.2959 13.1876 16.3019 12.6128H16.3129C16.3559 11.6587 16.3559 11.4042 16.3559 8.96607C16.3559 6.52794 16.3449 6.27146 16.3019 5.31836C16.2929 4.74996 16.1878 4.18716 15.9911 3.65369C15.8407 3.26601 15.611 2.91388 15.3168 2.61971C15.0225 2.32554 14.6701 2.0958 14.2821 1.94511C13.7478 1.74619 13.1831 1.64118 12.613 1.63473C11.6465 1.57984 11.3937 1.57984 8.96102 1.57984V1.57984ZM8.995 13.5918C8.08108 13.5924 7.18752 13.3223 6.42732 12.8158C5.66712 12.3092 5.07444 11.5889 4.72424 10.746C4.37404 9.90302 4.28205 8.9753 4.45991 8.08015C4.63777 7.18499 5.07749 6.36261 5.72345 5.71703C6.36941 5.07144 7.1926 4.63165 8.08889 4.45327C8.98518 4.27489 9.91432 4.36594 10.7588 4.7149C11.6032 5.06387 12.3251 5.65507 12.8331 6.41373C13.341 7.1724 13.6122 8.06444 13.6124 8.97705C13.6109 10.1998 13.124 11.372 12.2585 12.237C11.393 13.102 10.2195 13.5892 8.995 13.5918V13.5918ZM8.995 5.98104C8.40199 5.98104 7.82229 6.15663 7.32922 6.48562C6.83614 6.81461 6.45184 7.28221 6.2249 7.82929C5.99797 8.37638 5.93859 8.97837 6.05428 9.55915C6.16997 10.1399 6.45554 10.6734 6.87486 11.0921C7.29419 11.5109 7.82844 11.796 8.41006 11.9115C8.99168 12.0271 9.59454 11.9678 10.1424 11.7412C10.6903 11.5145 11.1586 11.1308 11.488 10.6384C11.8175 10.1461 11.9933 9.56721 11.9933 8.97505C11.9915 8.18156 11.675 7.42109 11.1131 6.86C10.5512 6.29892 9.78964 5.98288 8.995 5.98104ZM13.7923 5.26946C13.6509 5.26894 13.5109 5.24059 13.3803 5.18604C13.2498 5.13149 13.1313 5.0518 13.0317 4.95153C12.8304 4.74902 12.7179 4.47495 12.7189 4.18962C12.72 3.90429 12.8345 3.63106 13.0373 3.43005C13.2401 3.22904 13.5146 3.11671 13.8003 3.11776C14.0861 3.11882 14.3597 3.23319 14.561 3.4357C14.7623 3.63821 14.8748 3.91227 14.8737 4.1976C14.8727 4.48294 14.7582 4.75616 14.5553 4.95718C14.3525 5.15819 14.0781 5.27052 13.7923 5.26946Z" fill="#c13584"/>
</svg>