<svg width="18" height="11" viewBox="0 0 18 11" fill="none" xmlns="http://www.w3.org/2000/svg">
<path fill-rule="evenodd" clip-rule="evenodd" d="M17.5871 0.710985C17.7116 0.301494 17.5871 0 16.9909 0H15.0222C14.5212 0 14.2902 0.260245 14.165 0.547489C14.165 0.547489 13.1637 2.94444 11.7455 4.50141C11.2865 4.9529 11.078 5.09614 10.8275 5.09614C10.7023 5.09614 10.514 4.9529 10.514 4.54265V0.710985C10.514 0.218995 10.376 0 9.95904 0H6.86311C6.55036 0 6.36212 0.227995 6.36212 0.444741C6.36212 0.910481 7.0716 1.01848 7.14435 2.32945V5.17789C7.14435 5.80263 7.0296 5.91588 6.77911 5.91588C6.11162 5.91588 4.48791 3.50768 3.52418 0.752234C3.33743 0.215995 3.14843 0 2.64519 0H0.674986C0.112498 0 0 0.260245 0 0.547489C0 1.05898 0.667486 3.59992 3.10868 6.9606C4.73615 9.25556 7.02735 10.4998 9.11456 10.4998C10.3663 10.4998 10.5208 10.2238 10.5208 9.74755V8.01283C10.5208 7.46009 10.6393 7.34985 11.036 7.34985C11.3285 7.34985 11.8288 7.49384 12.9972 8.60007C14.3322 9.91179 14.5519 10.4998 15.3034 10.4998H17.2721C17.8346 10.4998 18.1166 10.2238 17.9546 9.6778C17.7761 9.13481 17.1386 8.34657 16.2934 7.41134C15.8344 6.87886 15.1459 6.30512 14.9367 6.01787C14.6449 5.64963 14.7282 5.48538 14.9367 5.15764C14.9367 5.15764 17.3366 1.83821 17.5864 0.710985H17.5871Z" fill="#45668e"/>
</svg>