<svg width="18" height="18" viewBox="0 0 18 18" fill="none" xmlns="http://www.w3.org/2000/svg">
<path d="M9 0C4.02794 0 0 4.02852 0 9C0 13.9715 4.02852 18 9 18C13.9721 18 18 13.9715 18 9C18 4.02852 13.9715 0 9 0ZM13.4205 6.16587L11.9433 13.1266C11.8341 13.6202 11.5403 13.7398 11.1304 13.5075L8.88039 11.8492L7.79516 12.8944C7.67555 13.014 7.57394 13.1156 7.34168 13.1156L7.50135 10.8255L11.671 7.05832C11.8527 6.89865 11.6309 6.80806 11.3911 6.96774L6.23787 10.2118L4.0169 9.51852C3.53439 9.36639 3.52335 9.036 4.11852 8.80374L12.7957 5.45748C13.1986 5.31232 13.5505 5.55561 13.4199 6.16529L13.4205 6.16587Z" fill="#0088cc"/>
</svg>