<?xml version="1.0" encoding="UTF-8"?>
<!-- Generator: Adobe Illustrator 25.4.1, SVG Export Plug-In . SVG Version: 6.00 Build 0)  -->
<svg version="1.1" id="Layer_1" xmlns="http://www.w3.org/2000/svg" xmlns:xlink="http://www.w3.org/1999/xlink" x="0px" y="0px" viewBox="0 0 320 320" style="enable-background:new 0 0 320 320;" xml:space="preserve">
<style type="text/css">
	.st0{fill:#ffcc00;}
	.st1{fill:#FFFFFF;}
	.st2{fill:#0066cc;}
</style>
<g>
	<g>
		<path class="st0" d="M117,35l22.1-22.1c11.5-11.5,30.2-11.5,41.7,0L203,35c11.5,11.5,11.5,30.2,0,41.7l-22.1,22.1    c-11.5,11.5-30.2,11.5-41.7,0L117,76.7C105.5,65.2,105.5,46.6,117,35z"/>
		<path class="st1" d="M160,111.8c-8.7,0-17.3-3.3-23.9-9.9L114,79.8c-6.4-6.4-9.9-14.9-9.9-23.9c0-9,3.5-17.5,9.9-23.9l22.1-22.1    c13.2-13.2,34.6-13.2,47.8,0L206,32c6.4,6.4,9.9,14.9,9.9,23.9s-3.5,17.5-9.9,23.9l-22.1,22.1C177.3,108.5,168.7,111.8,160,111.8z     M160,8.6c-6.4,0-12.9,2.5-17.8,7.4l-22.1,22.1c-9.8,9.8-9.8,25.8,0,35.6l22.1,22.1c9.8,9.8,25.8,9.8,35.6,0l22.1-22.1    c4.8-4.8,7.4-11.1,7.4-17.8s-2.6-13-7.4-17.8L177.8,16C172.9,11.1,166.4,8.6,160,8.6z"/>
	</g>
	<g>
		<path class="st0" d="M41.3,102V70.8c0-16.3,13.2-29.5,29.5-29.5H102c16.3,0,29.5,13.2,29.5,29.5V102c0,16.3-13.2,29.5-29.5,29.5    H70.8C54.5,131.5,41.3,118.3,41.3,102z"/>
		<path class="st1" d="M102,135.8H70.8C52.1,135.8,37,120.7,37,102V70.8C37,52.1,52.1,37,70.8,37H102c18.6,0,33.8,15.2,33.8,33.8    V102C135.8,120.7,120.7,135.8,102,135.8z M70.8,45.6c-13.9,0-25.2,11.3-25.2,25.2V102c0,13.9,11.3,25.2,25.2,25.2H102    c13.9,0,25.2-11.3,25.2-25.2V70.8c0-13.9-11.3-25.2-25.2-25.2H70.8z"/>
	</g>
	<g>
		<path class="st0" d="M35,203l-22.1-22.1c-11.5-11.5-11.5-30.2,0-41.7L35,117c11.5-11.5,30.2-11.5,41.7,0l22.1,22.1    c11.5,11.5,11.5,30.2,0,41.7L76.7,203C65.2,214.5,46.6,214.5,35,203z"/>
		<path class="st1" d="M55.9,215.9c-8.7,0-17.3-3.3-23.9-9.9L9.9,183.9c-13.2-13.2-13.2-34.6,0-47.8L32,114    c6.4-6.4,14.9-9.9,23.9-9.9c9,0,17.5,3.5,23.9,9.9l22.1,22.1c13.2,13.2,13.2,34.6,0,47.8L79.8,206    C73.2,212.6,64.6,215.9,55.9,215.9z M38.1,199.9c9.8,9.8,25.8,9.8,35.6,0l22.1-22.1c9.8-9.8,9.8-25.8,0-35.6l-22.1-22.1    c-9.8-9.8-25.8-9.8-35.6,0L16,142.2c-9.8,9.8-9.8,25.8,0,35.6L38.1,199.9z"/>
	</g>
	<g>
		<path class="st0" d="M102,278.7H70.8c-16.3,0-29.5-13.2-29.5-29.5V218c0-16.3,13.2-29.5,29.5-29.5H102c16.3,0,29.5,13.2,29.5,29.5    v31.3C131.5,265.5,118.3,278.7,102,278.7z"/>
		<path class="st1" d="M102,283H70.8C52.1,283,37,267.9,37,249.2V218c0-18.6,15.2-33.8,33.8-33.8H102c18.6,0,33.8,15.2,33.8,33.8    v31.3C135.8,267.9,120.7,283,102,283z M70.8,192.8c-13.9,0-25.2,11.3-25.2,25.2v31.3c0,13.9,11.3,25.2,25.2,25.2H102    c13.9,0,25.2-11.3,25.2-25.2V218c0-13.9-11.3-25.2-25.2-25.2H70.8z"/>
	</g>
	<g>
		<path class="st0" d="M203,285l-22.1,22.1c-11.5,11.5-30.2,11.5-41.7,0L117,285c-11.5-11.5-11.5-30.2,0-41.7l22.1-22.1    c11.5-11.5,30.2-11.5,41.7,0l22.1,22.1C214.5,254.8,214.5,273.4,203,285z"/>
		<path class="st1" d="M160,320c-9,0-17.5-3.5-23.9-9.9L114,288c-6.4-6.4-9.9-14.9-9.9-23.9c0-9,3.5-17.5,9.9-23.9l22.1-22.1    c6.4-6.4,14.9-9.9,23.9-9.9c9,0,17.5,3.5,23.9,9.9l22.1,22.1c6.4,6.4,9.9,14.9,9.9,23.9c0,9-3.5,17.5-9.9,23.9l-22.1,22.1    C177.5,316.5,169,320,160,320z M160,216.8c-6.7,0-13,2.6-17.8,7.4l-22.1,22.1c-4.8,4.8-7.4,11.1-7.4,17.8s2.6,13,7.4,17.8    l22.1,22.1c4.8,4.8,11.1,7.4,17.8,7.4c6.7,0,13-2.6,17.8-7.4l22.1-22.1c4.8-4.8,7.4-11.1,7.4-17.8s-2.6-13-7.4-17.8l-22.1-22.1    C173,219.4,166.7,216.8,160,216.8z"/>
	</g>
	<g>
		<path class="st0" d="M278.7,218v31.3c0,16.3-13.2,29.5-29.5,29.5H218c-16.3,0-29.5-13.2-29.5-29.5V218c0-16.3,13.2-29.5,29.5-29.5    h31.3C265.5,188.5,278.7,201.7,278.7,218z"/>
		<path class="st1" d="M249.2,283H218c-18.6,0-33.8-15.2-33.8-33.8V218c0-18.6,15.2-33.8,33.8-33.8h31.3c18.6,0,33.8,15.2,33.8,33.8    v31.3C283,267.9,267.9,283,249.2,283z M218,192.8c-13.9,0-25.2,11.3-25.2,25.2v31.3c0,13.9,11.3,25.2,25.2,25.2h31.3    c13.9,0,25.2-11.3,25.2-25.2V218c0-13.9-11.3-25.2-25.2-25.2H218z"/>
	</g>
	<g>
		<path class="st0" d="M285,117l22.1,22.1c11.5,11.5,11.5,30.2,0,41.7L285,203c-11.5,11.5-30.2,11.5-41.7,0l-22.1-22.1    c-11.5-11.5-11.5-30.2,0-41.7l22.1-22.1C254.8,105.5,273.4,105.5,285,117z"/>
		<path class="st1" d="M264.1,215.9c-8.7,0-17.3-3.3-23.9-9.9l-22.1-22.1c-6.4-6.4-9.9-14.9-9.9-23.9c0-9,3.5-17.5,9.9-23.9    l22.1-22.1c6.4-6.4,14.9-9.9,23.9-9.9c9,0,17.5,3.5,23.9,9.9l22.1,22.1c13.2,13.2,13.2,34.6,0,47.8L288,206    C281.4,212.6,272.8,215.9,264.1,215.9z M264.1,112.7c-6.7,0-13,2.6-17.8,7.4l-22.1,22.1c-4.8,4.8-7.4,11.1-7.4,17.8    c0,6.7,2.6,13,7.4,17.8l22.1,22.1c9.8,9.8,25.8,9.8,35.6,0l22.1-22.1c9.8-9.8,9.8-25.8,0-35.6l-22.1-22.1    C277.1,115.3,270.8,112.7,264.1,112.7z"/>
	</g>
	<g>
		<path class="st0" d="M249.2,41.3H218c-3.3,0-6.5,0.5-9.4,1.5c5.5,11,3.6,24.7-5.6,33.9l-14.5,14.5V102c0,16.3,13.2,29.5,29.5,29.5    h31.3c16.3,0,29.5-13.2,29.5-29.5V70.8C278.7,54.5,265.5,41.3,249.2,41.3z"/>
		<path class="st1" d="M249.2,135.8H218c-18.6,0-33.8-15.2-33.8-33.8V89.4l15.7-15.7c7.6-7.6,9.6-19.3,4.8-29l-2.2-4.4l4.7-1.6    c3.5-1.2,7.1-1.8,10.8-1.8h31.3c18.6,0,33.8,15.2,33.8,33.8V102C283,120.7,267.9,135.8,249.2,135.8z M192.8,93v9    c0,13.9,11.3,25.2,25.2,25.2h31.3c13.9,0,25.2-11.3,25.2-25.2V70.8c0-13.9-11.3-25.2-25.2-25.2H218c-1.2,0-2.4,0.1-3.6,0.3    c3.7,11.9,0.6,25-8.4,34L192.8,93z"/>
	</g>
	<g>
		<g>
			<circle class="st2" cx="160" cy="160" r="82.8"/>
			<path class="st1" d="M160,247.1c-23.3,0-45.2-9.1-61.6-25.5c-16.5-16.5-25.5-38.3-25.5-61.6s9.1-45.2,25.5-61.6     c34-34,89.3-34,123.2,0c34,34,34,89.3,0,123.2C205.2,238.1,183.3,247.1,160,247.1z M160,81.5c-20.1,0-40.2,7.7-55.5,23     c-14.8,14.8-23,34.5-23,55.5s8.2,40.7,23,55.5s34.5,23,55.5,23s40.7-8.2,55.5-23c30.6-30.6,30.6-80.4,0-111     C200.2,89.2,180.1,81.5,160,81.5z"/>
		</g>
		<g>
			<path class="st1" d="M188.2,120.5c-0.8-0.8-1.8-1.2-2.9-1.2c-1.1,0-2.2,0.4-2.9,1.2l-11.3,11.3c-0.8,0.8-1.2,1.8-1.2,2.9     c0,1.1,0.4,2.2,1.2,2.9l11.3,11.3c0.8,0.8,1.8,1.2,2.9,1.2c1.1,0,2.2-0.4,2.9-1.2l11.3-11.3c0.8-0.8,1.2-1.8,1.2-2.9     c0-1.1-0.4-2.2-1.2-2.9L188.2,120.5z"/>
			<path class="st1" d="M150.3,185.2c0-1.1-0.4-2.2-1.2-2.9l-11.3-11.3c-0.8-0.8-1.8-1.2-2.9-1.2c-1.1,0-2.2,0.4-2.9,1.2l-11.3,11.3     c-0.8,0.8-1.2,1.8-1.2,2.9c0,1.1,0.4,2.2,1.2,2.9l11.3,11.3c0.8,0.8,1.8,1.2,2.9,1.2s2.2-0.4,2.9-1.2l11.3-11.3     C149.8,187.4,150.3,186.4,150.3,185.2z"/>
			<path class="st1" d="M150.3,134.8c0-1.1-0.4-2.2-1.2-2.9l-11.3-11.3c-0.8-0.8-1.8-1.2-2.9-1.2c-1.1,0-2.2,0.4-2.9,1.2l-11.3,11.3     c-0.8,0.8-1.2,1.8-1.2,2.9c0,1.1,0.4,2.2,1.2,2.9l11.3,11.3c0.8,0.8,1.8,1.2,2.9,1.2c1.1,0,2.2-0.4,2.9-1.2l11.3-11.3     C149.8,136.9,150.3,135.9,150.3,134.8z"/>
			<path class="st1" d="M188.2,170.9c-0.8-0.8-1.8-1.2-2.9-1.2c-1.1,0-2.2,0.4-2.9,1.2l-11.3,11.3c-0.8,0.8-1.2,1.8-1.2,2.9     c0,1.1,0.4,2.2,1.2,2.9l11.3,11.3c0.8,0.8,1.8,1.2,2.9,1.2c1.1,0,2.2-0.4,2.9-1.2l11.3-11.3c0.8-0.8,1.2-1.8,1.2-2.9     c0-1.1-0.4-2.2-1.2-2.9L188.2,170.9z"/>
			<path class="st1" d="M213.4,145.7c-0.8-0.8-1.8-1.2-2.9-1.2c-1.1,0-2.2,0.4-2.9,1.2l-11.3,11.3c-1.6,1.6-1.6,4.3,0,5.9l11.3,11.3     c0.8,0.8,1.8,1.2,2.9,1.2c1.1,0,2.2-0.4,2.9-1.2l11.3-11.3c0.8-0.8,1.2-1.8,1.2-2.9s-0.4-2.2-1.2-2.9L213.4,145.7z"/>
			<path class="st1" d="M162.9,95.2c-0.8-0.8-1.8-1.2-2.9-1.2c-1.1,0-2.2,0.4-2.9,1.2l-11.3,11.3c-1.6,1.6-1.6,4.3,0,5.9l11.3,11.3     c0.8,0.8,1.8,1.2,2.9,1.2c1.1,0,2.2-0.4,2.9-1.2l11.3-11.3c1.6-1.6,1.6-4.3,0-5.9L162.9,95.2z"/>
			<path class="st1" d="M112.5,145.7c-0.8-0.8-1.8-1.2-2.9-1.2c-1.1,0-2.2,0.4-2.9,1.2l-11.3,11.3c-1.6,1.6-1.6,4.3,0,5.9l11.3,11.3     c0.8,0.8,1.8,1.2,2.9,1.2c1.1,0,2.2-0.4,2.9-1.2l11.3-11.3c1.6-1.6,1.6-4.3,0-5.9L112.5,145.7z"/>
			<path class="st1" d="M162.9,196.2c-0.8-0.8-1.8-1.2-2.9-1.2c-1.1,0-2.2,0.4-2.9,1.2l-11.3,11.3c-1.6,1.6-1.6,4.3,0,5.9l11.3,11.3     c0.8,0.8,1.8,1.2,2.9,1.2c1.1,0,2.2-0.4,2.9-1.2l11.3-11.3c1.6-1.6,1.6-4.3,0-5.9L162.9,196.2z"/>
			<path class="st1" d="M162.9,145.7c-0.8-0.8-1.8-1.2-2.9-1.2c-1.1,0-2.2,0.4-2.9,1.2l-11.3,11.3c-1.6,1.6-1.6,4.3,0,5.9l11.3,11.3     c0.8,0.8,1.8,1.2,2.9,1.2c1.1,0,2.2-0.4,2.9-1.2l11.3-11.3c1.6-1.6,1.6-4.3,0-5.9L162.9,145.7z"/>
		</g>
	</g>
</g>
</svg>